<?xml version="1.0" encoding="UTF-8" standalone="no"?>
<svg
   xmlns:dc="http://purl.org/dc/elements/1.1/"
   xmlns:cc="http://creativecommons.org/ns#"
   xmlns:rdf="http://www.w3.org/1999/02/22-rdf-syntax-ns#"
   xmlns:svg="http://www.w3.org/2000/svg"
   xmlns="http://www.w3.org/2000/svg"
   viewBox="0 0 1056 816"
   height="816"
   width="1056"
   xml:space="preserve"
   id="svg2"
   version="1.1"><metadata
     id="metadata8"><rdf:RDF><cc:Work
         rdf:about=""><dc:format>image/svg+xml</dc:format><dc:type
           rdf:resource="http://purl.org/dc/dcmitype/StillImage" /></cc:Work></rdf:RDF></metadata><defs
     id="defs6"><linearGradient
       id="linearGradient36"
       spreadMethod="pad"
       gradientTransform="matrix(548.1734,-316.48807,-316.48807,-548.1734,132.9312,420.81796)"
       gradientUnits="userSpaceOnUse"
       y2="0"
       x2="1"
       y1="0"
       x1="0"><stop
         id="stop24"
         offset="0"
         style="stop-opacity:1;stop-color:#3bade2" /><stop
         id="stop26"
         offset="0.491892"
         style="stop-opacity:1;stop-color:#364c9d" /><stop
         id="stop28"
         offset="0.70226215"
         style="stop-opacity:1;stop-color:#364c9d" /><stop
         id="stop30"
         offset="0.805405"
         style="stop-opacity:1;stop-color:#364c9d" /><stop
         id="stop32"
         offset="0.93598006"
         style="stop-opacity:1;stop-color:#364c9d" /><stop
         id="stop34"
         offset="1"
         style="stop-opacity:1;stop-color:#953993" /></linearGradient><clipPath
       id="clipPath46"
       clipPathUnits="userSpaceOnUse"><path
         id="path44"
         d="M 0,612 H 792 V 0 H 0 Z" /></clipPath></defs><g
     transform="matrix(1.3333333,0,0,-1.3333333,0,816)"
     id="g10"><g
       id="g12"><g
         id="g14"><g
           id="g20"><g
             id="g22"><path
               id="path38"
               style="fill:url(#linearGradient36);stroke:none"
               d="m 546.818,382.353 -10e-4,0.253 v 16.503 c -3.821,1.229 -7.843,2.491 -12.041,3.77 v 0 c -0.282,-0.134 -0.554,-0.262 -0.805,-0.38 v 0 c -2.16,-1.022 -4.027,-1.904 -5.19,-2.38 v 0 c -1.121,-0.449 -2.365,-0.947 -3.713,-0.947 v 0 c -2.547,0 -4.78,2.477 -4.78,5.301 v 0 c 0,0.873 0.223,1.717 0.625,2.5 v 0 c -33.351,9.535 -75.685,19.392 -121.902,24.756 v 0 c 0,0 73.697,-17.958 147.807,-49.376 m 27.591,4.782 v -17.15 c 28.255,-13.419 55.208,-28.764 76.619,-45.78 v 0 c 17.723,-14.085 32.122,-34.125 32.614,-56.331 v 0 c 0.097,-4.404 -1.373,-19.551 -17.121,-21.064 v 0 C 596.568,240.088 341.959,211.607 197.132,236.046 v 0 c -19.805,3.342 -49.313,9.751 -67.05,21.439 v 0 c -8.252,5.436 -12.741,18.713 4.087,29.982 v 0 l -77.809,0.726 c 0,0 -22.239,-37.727 3.761,-59.3 v 0 c 12.258,-10.171 41.156,-21.333 90.291,-28.065 v 0 c 49.908,-6.838 131.202,-11.982 262.132,-8.327 v 0 c 0,0 296.303,8.519 336.169,29.776 v 0 c 0.744,0.396 1.265,1.106 1.431,1.932 v 0 c 0.63,3.154 2.197,11.854 2.539,21.928 v 0 c 0.517,15.258 -4.66,30.166 -14.427,41.9 v 0 c -18.203,21.871 -60.926,62.847 -143.995,93.913 v 0 c 0,0 -7.137,3.051 -19.848,7.698 v 0 c -0.002,-0.829 -0.004,-1.664 -0.004,-2.513" /></g></g></g></g><g
       id="g40"><g
         clip-path="url(#clipPath46)"
         id="g42"><g
           transform="translate(588.874,302.3496)"
           id="g48"><path
             id="path50"
             style="fill:#364c9d;fill-opacity:1;fill-rule:nonzero;stroke:none"
             d="m 0,0 c 1.907,0 2.774,0.347 2.774,1.561 0,1.213 -0.867,1.733 -1.56,1.733 -1.387,0 -8.733,2.694 -11.443,3.509 -5.395,1.476 -6.416,3.815 -6.936,9.363 -0.693,7.629 -0.693,19.898 -0.693,36.543 v 32.077 c 0,26.527 1.04,43.693 1.04,45.08 0,1.734 -0.52,3.641 -2.08,3.641 -1.388,0 -2.948,-1.214 -4.509,-2.254 -6.068,-4.508 -39.358,-26.355 -40.052,-26.702 -0.866,-0.519 -1.733,-1.386 -1.733,-2.427 0,-1.04 0.867,-1.907 1.386,-1.907 0.694,0 1.561,0.347 2.428,0.694 3.815,1.56 16.818,8.322 20.112,8.322 2.602,0 2.602,-2.081 2.602,-6.242 V 80.278 l 0.173,-27.569 c 0.174,-16.645 -0.173,-28.914 -0.867,-36.543 -0.52,-5.548 -1.417,-7.689 -6.936,-9.189 -3.085,-0.839 -11.964,-3.683 -13.87,-3.683 -0.694,0 -1.388,-0.52 -1.388,-1.733 0,-1.214 1.041,-1.561 2.948,-1.561 11.097,0 25.662,0.521 29.649,0.521 C -24.273,0.521 -13.177,0 0,0 m -417.772,39.341 h 59.634 v 15.698 h -59.634 v 6.572 c 0,4.867 0.864,8.354 2.593,10.466 1.727,2.108 4.77,3.163 9.126,3.163 h 16.179 v 15.942 h -16.594 c -5.185,0 -9.507,-0.508 -12.964,-1.521 -3.457,-1.015 -6.222,-2.637 -8.296,-4.868 -2.074,-2.232 -3.544,-5.172 -4.408,-8.823 -0.865,-3.65 -1.296,-8.074 -1.296,-13.264 V 8.188 h 15.66 z m 196.218,10.344 c 0,2.352 0.172,4.217 0.519,5.598 0.345,1.378 0.915,2.433 1.711,3.164 0.794,0.73 1.848,1.196 3.163,1.399 1.312,0.201 2.937,0.304 4.874,0.304 h 25.721 c 2.349,0 3.993,-0.365 4.925,-1.095 0.934,-0.73 1.401,-2.19 1.401,-4.381 v -8.518 h -42.314 z m 27.587,-27.746 h -18.253 c -1.799,0 -3.302,0.122 -4.512,0.365 -1.21,0.243 -2.177,0.709 -2.903,1.399 -0.726,0.689 -1.228,1.644 -1.504,2.86 -0.278,1.217 -0.415,2.839 -0.415,4.868 v 3.042 h 57.767 v 21.662 c 0,2.594 -0.312,5.008 -0.934,7.24 -0.623,2.23 -1.712,4.138 -3.266,5.72 -1.557,1.582 -3.666,2.818 -6.327,3.711 -2.663,0.892 -5.999,1.339 -10.008,1.339 h -27.172 c -4.978,0 -9.092,-0.447 -12.342,-1.339 -3.25,-0.893 -5.859,-2.333 -7.83,-4.32 -1.97,-1.988 -3.355,-4.624 -4.148,-7.91 -0.796,-3.285 -1.193,-7.322 -1.193,-12.108 V 33.256 c 0,-8.762 1.901,-15.131 5.704,-19.105 3.802,-3.976 10.164,-5.963 19.083,-5.963 h 18.253 z m -69.694,15.211 c 0,-2.759 -0.173,-5.01 -0.518,-6.754 -0.347,-1.745 -0.969,-3.124 -1.867,-4.137 -0.9,-1.015 -2.144,-1.725 -3.734,-2.13 -1.591,-0.407 -3.595,-0.608 -6.015,-0.608 h -18.667 c -2.422,0 -4.408,0.201 -5.964,0.608 -1.555,0.405 -2.784,1.115 -3.681,2.13 -0.9,1.013 -1.522,2.392 -1.868,4.137 -0.346,1.744 -0.518,3.956 -0.518,6.633 v 21.539 h 30.698 c 2.42,0 4.424,-0.182 6.015,-0.547 1.59,-0.365 2.834,-1.035 3.734,-2.008 0.898,-0.974 1.52,-2.354 1.867,-4.138 0.345,-1.785 0.518,-4.098 0.518,-6.936 z m 15.453,8.397 c 0,5.273 -0.433,9.736 -1.296,13.387 -0.866,3.65 -2.334,6.59 -4.408,8.822 -2.074,2.23 -4.84,3.852 -8.297,4.868 -3.458,1.014 -7.813,1.521 -13.067,1.521 h -31.217 v 21.296 h -15.453 V 36.664 c 0,-5.275 0.431,-9.717 1.297,-13.326 0.863,-3.61 2.334,-6.531 4.407,-8.762 2.075,-2.232 4.839,-3.854 8.297,-4.868 3.457,-1.015 7.778,-1.52 12.964,-1.52 h 19.705 c 5.254,0 9.609,0.505 13.067,1.52 3.457,1.014 6.223,2.636 8.297,4.868 2.074,2.231 3.542,5.152 4.408,8.762 0.863,3.609 1.296,8.051 1.296,13.326 z m 110.556,0.73 c 0,2.596 0.189,4.746 0.57,6.45 0.379,1.704 1.001,3.042 1.866,4.016 0.864,0.973 2.023,1.662 3.475,2.069 1.452,0.405 3.249,0.608 5.392,0.608 h 9.646 v 14.725 h -10.061 c -4.77,0 -8.814,-0.528 -12.133,-1.582 -3.319,-1.055 -6.033,-2.698 -8.141,-4.929 -2.11,-2.232 -3.649,-5.092 -4.615,-8.579 -0.97,-3.489 -1.452,-7.708 -1.452,-12.656 V 8.188 h 15.453 z m -206.694,31.64 h 5.082 c 2.005,0 3.405,0.445 4.201,1.339 0.793,0.892 1.192,2.312 1.192,4.26 v 7.057 c 0,1.948 -0.399,3.347 -1.192,4.198 -0.796,0.853 -2.196,1.278 -4.201,1.278 h -5.082 c -1.936,0 -3.302,-0.425 -4.096,-1.278 -0.795,-0.851 -1.193,-2.25 -1.193,-4.198 v -7.057 c 0,-1.948 0.398,-3.368 1.193,-4.26 0.794,-0.894 2.16,-1.339 4.096,-1.339 m 10.475,-5.476 h -15.764 V 8.187 h 15.764 z m 165.41,-124.08 h 7.525 v 29.123 h -7.525 z m 4.951,39.824 h -2.426 c -0.924,0 -1.576,-0.194 -1.955,-0.58 -0.38,-0.385 -0.57,-1.02 -0.57,-1.903 v -3.199 c 0,-0.883 0.19,-1.526 0.57,-1.93 0.379,-0.405 1.031,-0.607 1.955,-0.607 h 2.426 c 0.956,0 1.625,0.202 2.005,0.607 0.379,0.404 0.569,1.047 0.569,1.93 v 3.199 c 0,0.883 -0.19,1.518 -0.569,1.903 -0.38,0.386 -1.049,0.58 -2.005,0.58 m 18.441,-32.57 c -0.743,0.201 -1.328,0.542 -1.757,1.02 -0.43,0.477 -0.727,1.112 -0.892,1.903 -0.166,0.79 -0.247,1.774 -0.247,2.95 v 3.531 c 0,1.213 0.081,2.224 0.247,3.033 0.165,0.809 0.462,1.443 0.892,1.903 0.429,0.459 1.014,0.781 1.757,0.966 0.743,0.183 1.691,0.275 2.847,0.275 h 19.159 v 7.06 h -19.407 c -2.475,0 -4.538,-0.23 -6.188,-0.689 -1.652,-0.461 -2.971,-1.196 -3.961,-2.207 -0.99,-1.011 -1.692,-2.343 -2.105,-3.998 -0.412,-1.655 -0.618,-3.677 -0.618,-6.067 v -4.026 c 0,-2.392 0.206,-4.405 0.618,-6.04 0.413,-1.637 1.115,-2.96 2.105,-3.972 0.99,-1.011 2.309,-1.746 3.961,-2.206 1.65,-0.46 3.713,-0.69 6.188,-0.69 h 19.456 v 6.951 h -19.208 c -1.156,0 -2.104,0.1 -2.847,0.303 m 89.978,-7.254 h 7.525 v 29.123 h -7.525 z m -12.029,38.334 h -7.526 v -8.439 h -3.762 v -6.674 h 3.762 v -23.221 h 7.526 v 23.221 h 8.465 v 6.674 h -8.465 z m -22.031,-27.357 c 0,-1.104 -0.099,-2.005 -0.297,-2.703 -0.198,-0.699 -0.495,-1.241 -0.891,-1.627 -0.396,-0.386 -0.908,-0.653 -1.535,-0.8 -0.627,-0.146 -1.37,-0.221 -2.228,-0.221 h -13.862 c -0.958,0 -1.7,0.202 -2.227,0.608 -0.53,0.403 -0.793,1.138 -0.793,2.206 v 2.04 c 0,1.177 0.248,1.976 0.743,2.4 0.495,0.422 1.171,0.634 2.029,0.634 h 19.061 z m 4.604,16.243 c -0.958,0.901 -2.186,1.572 -3.688,2.014 -1.502,0.441 -3.327,0.661 -5.471,0.661 h -7.327 v -5.847 h 7.327 c 1.649,0 2.822,-0.322 3.516,-0.965 0.693,-0.643 1.039,-1.922 1.039,-3.833 v -0.662 h -19.852 c -1.85,0 -3.376,-0.175 -4.58,-0.523 -1.205,-0.351 -2.153,-0.865 -2.847,-1.545 -0.693,-0.681 -1.18,-1.508 -1.461,-2.483 -0.28,-0.974 -0.42,-2.086 -0.42,-3.336 v -2.813 c 0,-1.214 0.149,-2.309 0.446,-3.281 0.297,-0.976 0.816,-1.803 1.559,-2.483 0.743,-0.68 1.741,-1.205 2.995,-1.572 1.254,-0.368 2.854,-0.552 4.802,-0.552 h 14.506 c 2.376,0 4.349,0.194 5.916,0.58 1.567,0.386 2.821,1.038 3.763,1.957 0.94,0.919 1.6,2.115 1.98,3.586 0.379,1.47 0.57,3.29 0.57,5.46 v 7.281 c 0,1.912 -0.223,3.557 -0.668,4.936 -0.447,1.38 -1.148,2.519 -2.105,3.42 m 69.953,-14.093 c 0,-1.25 -0.092,-2.27 -0.272,-3.06 -0.182,-0.791 -0.513,-1.416 -0.99,-1.876 -0.479,-0.459 -1.148,-0.781 -2.005,-0.965 -0.86,-0.185 -1.949,-0.275 -3.268,-0.275 h -6.98 c -1.321,0 -2.402,0.09 -3.244,0.275 -0.841,0.184 -1.501,0.506 -1.98,0.965 -0.479,0.46 -0.809,1.085 -0.989,1.876 -0.183,0.79 -0.273,1.81 -0.273,3.06 v 3.531 c 0,1.25 0.09,2.28 0.273,3.088 0.18,0.809 0.51,1.443 0.989,1.904 0.479,0.459 1.139,0.771 1.98,0.937 0.842,0.165 1.923,0.248 3.244,0.248 h 6.98 c 1.319,0 2.408,-0.083 3.268,-0.248 0.857,-0.166 1.526,-0.478 2.005,-0.937 0.477,-0.461 0.808,-1.095 0.99,-1.904 0.18,-0.808 0.272,-1.838 0.272,-3.088 z m 4.654,13.845 c -0.991,1.029 -2.311,1.773 -3.96,2.234 -1.652,0.459 -3.732,0.689 -6.239,0.689 H -29.1 c -2.475,0 -4.538,-0.23 -6.188,-0.689 -1.651,-0.461 -2.971,-1.196 -3.961,-2.207 -0.99,-1.011 -1.691,-2.343 -2.105,-3.998 -0.412,-1.655 -0.618,-3.677 -0.618,-6.067 v -4.026 c 0,-2.392 0.206,-4.405 0.618,-6.04 0.414,-1.637 1.115,-2.96 2.105,-3.972 0.99,-1.011 2.31,-1.746 3.961,-2.206 1.65,-0.46 3.713,-0.69 6.188,-0.69 h 8.961 c 2.507,0 4.587,0.23 6.239,0.69 1.649,0.46 2.969,1.195 3.96,2.206 0.99,1.012 1.691,2.335 2.104,3.972 0.412,1.635 0.618,3.648 0.618,6.04 v 3.97 c 0,2.39 -0.206,4.413 -0.618,6.068 -0.413,1.654 -1.114,2.997 -2.104,4.026 m 79.804,-13.486 c -0.231,1.085 -0.66,1.966 -1.287,2.647 -0.628,0.681 -1.485,1.177 -2.574,1.49 -1.09,0.312 -2.492,0.469 -4.208,0.469 H 47.24 c -0.661,0 -1.139,0.147 -1.435,0.442 -0.298,0.293 -0.447,0.863 -0.447,1.709 v 1.379 c 0,0.772 0.157,1.305 0.47,1.599 0.315,0.294 0.834,0.441 1.561,0.441 h 8.416 v 6.233 H 45.606 c -1.453,0 -2.657,-0.129 -3.614,-0.386 -0.958,-0.258 -1.717,-0.671 -2.277,-1.241 -0.562,-0.57 -0.966,-1.315 -1.213,-2.233 -0.248,-0.919 -0.371,-2.023 -0.371,-3.31 v -2.261 c 0,-1.324 0.09,-2.474 0.272,-3.448 0.181,-0.975 0.535,-1.793 1.064,-2.454 0.528,-0.662 1.262,-1.158 2.203,-1.489 0.941,-0.331 2.17,-0.497 3.688,-0.497 h 15.051 c 0.891,0 1.526,-0.137 1.905,-0.414 0.379,-0.275 0.57,-0.964 0.57,-2.068 v -0.993 c 0,-1.029 -0.197,-1.729 -0.594,-2.096 -0.396,-0.368 -1.089,-0.552 -2.08,-0.552 H 38.081 v -6.453 h 23.07 c 1.882,0 3.409,0.139 4.579,0.414 1.172,0.276 2.096,0.726 2.773,1.352 0.677,0.624 1.13,1.442 1.361,2.454 0.231,1.011 0.347,2.252 0.347,3.723 v 1.545 c 0,1.58 -0.116,2.913 -0.347,3.998 m -246.741,13.513 c -0.99,1.011 -2.31,1.746 -3.96,2.207 -1.651,0.459 -3.73,0.689 -6.238,0.689 h -8.961 c -2.475,0 -4.539,-0.23 -6.189,-0.689 -1.65,-0.461 -2.97,-1.196 -3.96,-2.207 -0.99,-1.011 -1.691,-2.343 -2.104,-3.998 -0.413,-1.655 -0.619,-3.677 -0.619,-6.067 v -16.934 h 7.377 v 16.658 c 0,1.25 0.091,2.27 0.272,3.061 0.181,0.79 0.503,1.415 0.965,1.875 0.462,0.459 1.082,0.781 1.857,0.966 0.775,0.183 1.74,0.275 2.896,0.275 h 8.02 c 1.189,0 2.17,-0.092 2.946,-0.275 0.775,-0.185 1.387,-0.507 1.832,-0.966 0.445,-0.46 0.759,-1.085 0.94,-1.875 0.181,-0.791 0.273,-1.811 0.273,-3.061 v -16.658 h 7.376 v 16.934 c 0,2.39 -0.206,4.412 -0.618,6.067 -0.414,1.655 -1.114,2.987 -2.105,3.998 m -195.156,-13.872 c 0,-1.25 -0.092,-2.27 -0.272,-3.06 -0.182,-0.791 -0.512,-1.416 -0.99,-1.876 -0.479,-0.459 -1.148,-0.781 -2.005,-0.965 -0.859,-0.185 -1.949,-0.275 -3.268,-0.275 h -6.981 c -1.32,0 -2.401,0.09 -3.242,0.275 -0.842,0.184 -1.503,0.506 -1.981,0.965 -0.478,0.46 -0.809,1.085 -0.99,1.876 -0.182,0.79 -0.272,1.81 -0.272,3.06 v 3.531 c 0,1.25 0.09,2.28 0.272,3.088 0.181,0.809 0.512,1.443 0.99,1.904 0.478,0.459 1.139,0.771 1.981,0.937 0.841,0.165 1.922,0.248 3.242,0.248 h 6.981 c 1.319,0 2.409,-0.083 3.268,-0.248 0.857,-0.166 1.526,-0.478 2.005,-0.937 0.478,-0.461 0.808,-1.095 0.99,-1.904 0.18,-0.808 0.272,-1.838 0.272,-3.088 z m 4.653,13.845 c -0.99,1.029 -2.31,1.773 -3.96,2.234 -1.651,0.459 -3.73,0.689 -6.238,0.689 h -8.961 c -2.475,0 -4.538,-0.23 -6.188,-0.689 -1.651,-0.461 -2.97,-1.196 -3.961,-2.207 -0.99,-1.011 -1.692,-2.343 -2.104,-3.998 -0.413,-1.655 -0.619,-3.677 -0.619,-6.067 v -4.026 c 0,-2.392 0.206,-4.405 0.619,-6.04 0.412,-1.637 1.114,-2.96 2.104,-3.972 0.991,-1.011 2.31,-1.746 3.961,-2.206 1.65,-0.46 3.713,-0.69 6.188,-0.69 h 8.961 c 2.508,0 4.587,0.23 6.238,0.69 1.65,0.46 2.97,1.195 3.96,2.206 0.991,1.012 1.692,2.335 2.105,3.972 0.412,1.635 0.618,3.648 0.618,6.04 v 3.97 c 0,2.39 -0.206,4.413 -0.618,6.068 -0.413,1.654 -1.114,2.997 -2.105,4.026 m -66.239,9.956 c -1.652,-0.461 -2.971,-1.196 -3.961,-2.207 -0.99,-1.011 -1.692,-2.344 -2.105,-3.998 -0.413,-1.655 -0.618,-3.659 -0.618,-6.013 v -11.802 c 0,-2.392 0.205,-4.405 0.618,-6.04 0.413,-1.637 1.115,-2.96 2.105,-3.972 0.99,-1.011 2.309,-1.746 3.961,-2.206 1.65,-0.46 3.712,-0.69 6.188,-0.69 h 23.417 v 7.171 h -23.021 c -1.156,0 -2.112,0.091 -2.872,0.276 -0.759,0.183 -1.354,0.514 -1.781,0.993 -0.43,0.477 -0.728,1.102 -0.892,1.875 -0.166,0.772 -0.248,1.746 -0.248,2.924 v 11.031 c 0,1.139 0.082,2.103 0.248,2.894 0.164,0.791 0.462,1.426 0.892,1.904 0.427,0.477 1.014,0.818 1.756,1.02 0.744,0.201 1.692,0.304 2.847,0.304 h 23.071 v 7.226 h -23.417 c -2.476,0 -4.538,-0.231 -6.188,-0.69 m 121.836,-9.625 c -0.759,0.883 -1.75,1.535 -2.97,1.958 -1.222,0.423 -2.723,0.634 -4.506,0.634 h -6.683 c -2.641,0 -4.612,-0.433 -5.916,-1.296 -1.304,-0.864 -2.187,-2.179 -2.648,-3.943 -0.265,0.882 -0.603,1.654 -1.016,2.316 -0.413,0.662 -0.957,1.204 -1.633,1.627 -0.677,0.422 -1.502,0.744 -2.475,0.966 -0.974,0.22 -2.138,0.33 -3.491,0.33 h -6.485 c -1.783,0 -3.285,-0.211 -4.506,-0.634 -1.221,-0.423 -2.211,-1.075 -2.97,-1.958 -0.759,-0.883 -1.304,-1.995 -1.633,-3.337 -0.331,-1.343 -0.496,-2.932 -0.496,-4.771 v -19.195 h 7.179 v 17.982 c 0,1.875 0.305,3.152 0.916,3.833 0.61,0.679 1.658,1.02 3.143,1.02 h 4.703 c 1.122,0 2.047,-0.083 2.773,-0.248 0.726,-0.166 1.295,-0.441 1.708,-0.827 0.413,-0.387 0.693,-0.883 0.842,-1.489 0.148,-0.608 0.222,-1.371 0.222,-2.289 v -17.982 h 6.486 v 17.982 c 0,0.918 0.082,1.681 0.247,2.289 0.165,0.606 0.453,1.102 0.867,1.489 0.412,0.386 0.973,0.661 1.683,0.827 0.71,0.165 1.609,0.248 2.698,0.248 h 4.803 c 1.418,0 2.45,-0.341 3.093,-1.02 0.644,-0.681 0.966,-1.958 0.966,-3.833 v -17.982 h 7.228 v 19.195 c 0,1.839 -0.165,3.428 -0.495,4.771 -0.33,1.342 -0.875,2.454 -1.634,3.337 M 30.259,-24.64 c -0.99,1.011 -2.311,1.746 -3.96,2.207 -1.652,0.459 -3.731,0.689 -6.238,0.689 H 11.1 c -2.475,0 -4.538,-0.23 -6.189,-0.689 -1.65,-0.461 -2.971,-1.196 -3.96,-2.207 -0.99,-1.011 -1.692,-2.343 -2.104,-3.998 -0.413,-1.655 -0.619,-3.677 -0.619,-6.067 v -16.934 h 7.376 v 16.658 c 0,1.25 0.091,2.27 0.273,3.061 0.181,0.79 0.503,1.415 0.965,1.875 0.463,0.459 1.081,0.781 1.857,0.966 0.775,0.183 1.74,0.275 2.896,0.275 h 8.02 c 1.189,0 2.169,-0.092 2.946,-0.275 0.775,-0.185 1.386,-0.507 1.832,-0.966 0.445,-0.46 0.758,-1.085 0.94,-1.875 0.181,-0.791 0.272,-1.811 0.272,-3.061 v -16.658 h 7.376 v 16.934 c 0,2.39 -0.206,4.412 -0.618,6.067 -0.413,1.655 -1.113,2.987 -2.104,3.998 M -221.78,-38.512 c 0,-1.287 -0.091,-2.325 -0.272,-3.116 -0.181,-0.791 -0.495,-1.406 -0.94,-1.848 -0.446,-0.441 -1.065,-0.744 -1.857,-0.909 -0.792,-0.166 -1.782,-0.249 -2.97,-0.249 h -7.723 c -1.123,0 -2.072,0.083 -2.847,0.249 -0.776,0.165 -1.394,0.468 -1.857,0.909 -0.462,0.442 -0.8,1.057 -1.014,1.848 -0.216,0.791 -0.322,1.829 -0.322,3.116 v 16.768 h -7.426 v -16.987 c 0,-2.392 0.206,-4.405 0.618,-6.04 0.413,-1.637 1.115,-2.96 2.105,-3.972 0.99,-1.011 2.309,-1.746 3.96,-2.206 1.65,-0.46 3.714,-0.69 6.189,-0.69 h 8.713 c 2.507,0 4.595,0.23 6.262,0.69 1.666,0.46 2.995,1.195 3.986,2.206 0.989,1.012 1.691,2.335 2.104,3.972 0.412,1.635 0.618,3.648 0.618,6.04 v 16.987 h -7.327 z m 171.64,26.697 h -2.425 c -0.925,0 -1.578,-0.194 -1.956,-0.58 -0.38,-0.385 -0.57,-1.02 -0.57,-1.903 v -3.199 c 0,-0.883 0.19,-1.526 0.57,-1.93 0.378,-0.405 1.031,-0.607 1.956,-0.607 h 2.425 c 0.956,0 1.625,0.202 2.005,0.607 0.379,0.404 0.57,1.047 0.57,1.93 v 3.199 c 0,0.883 -0.191,1.518 -0.57,1.903 -0.38,0.386 -1.049,0.58 -2.005,0.58 m -206.542,-12.521 c -0.759,0.883 -1.75,1.535 -2.97,1.958 -1.222,0.423 -2.723,0.634 -4.505,0.634 h -6.684 c -2.64,0 -4.612,-0.433 -5.916,-1.296 -1.304,-0.864 -2.187,-2.179 -2.648,-3.943 -0.265,0.882 -0.603,1.654 -1.015,2.316 -0.413,0.662 -0.958,1.204 -1.634,1.627 -0.677,0.422 -1.502,0.744 -2.475,0.966 -0.974,0.22 -2.138,0.33 -3.491,0.33 h -6.485 c -1.782,0 -3.285,-0.211 -4.505,-0.634 -1.221,-0.423 -2.212,-1.075 -2.971,-1.958 -0.759,-0.883 -1.304,-1.995 -1.633,-3.337 -0.331,-1.343 -0.495,-2.932 -0.495,-4.771 v -19.195 h 7.178 v 17.982 c 0,1.875 0.305,3.152 0.916,3.833 0.61,0.679 1.659,1.02 3.143,1.02 h 4.704 c 1.122,0 2.046,-0.083 2.772,-0.248 0.726,-0.166 1.295,-0.441 1.709,-0.827 0.412,-0.387 0.692,-0.883 0.841,-1.489 0.148,-0.608 0.222,-1.371 0.222,-2.289 v -17.982 h 6.486 v 17.982 c 0,0.918 0.082,1.681 0.247,2.289 0.166,0.606 0.454,1.102 0.867,1.489 0.412,0.386 0.973,0.661 1.683,0.827 0.71,0.165 1.609,0.248 2.698,0.248 h 4.803 c 1.418,0 2.45,-0.341 3.094,-1.02 0.643,-0.681 0.965,-1.958 0.965,-3.833 v -17.982 h 7.228 v 19.195 c 0,1.839 -0.165,3.428 -0.495,4.771 -0.33,1.342 -0.875,2.454 -1.634,3.337" /></g></g></g></g></svg>